#N canvas 126 77 357 804 10;
#X msg 37 701 disconnect;
#X obj 15 728 netsend -u -b;
#X obj 39 176 list prepend send;
#X obj 39 197 list trim;
#X obj 15 74 bng 30 250 50 0 empty empty empty 17 7 0 10 -257985 -1
-1;
#X floatatom 39 136 5 0 0 0 - - -, f 5;
#X obj 39 155 oscformat video enveloppe id;
#X obj 49 266 list prepend send;
#X obj 49 287 list trim;
#X floatatom 49 226 5 0 0 0 - - -, f 5;
#X obj 59 356 list prepend send;
#X obj 59 377 list trim;
#X floatatom 59 316 5 0 0 0 - - -, f 5;
#X obj 69 446 list prepend send;
#X obj 69 467 list trim;
#X floatatom 69 406 5 0 0 0 - - -, f 5;
#X obj 79 536 list prepend send;
#X obj 79 557 list trim;
#X floatatom 79 496 5 0 0 0 - - -, f 5;
#X obj 89 626 list prepend send;
#X obj 89 647 list trim;
#X floatatom 89 586 5 0 0 0 - - -, f 5;
#X obj 49 245 oscformat video enveloppe max;
#X obj 59 335 oscformat video enveloppe fadein;
#X obj 69 425 oscformat video enveloppe decay;
#X obj 79 515 oscformat video enveloppe fadeout;
#X obj 89 605 oscformat video control color;
#X text 14 31 Envoi de messages OSC pour test;
#X text 14 17 Exsitu / backup / 7 juin 2019;
#X msg 15 110 connect localhost 8003;
#X connect 0 0 1 0;
#X connect 2 0 3 0;
#X connect 3 0 1 0;
#X connect 4 0 29 0;
#X connect 5 0 6 0;
#X connect 6 0 2 0;
#X connect 7 0 8 0;
#X connect 8 0 1 0;
#X connect 9 0 22 0;
#X connect 10 0 11 0;
#X connect 11 0 1 0;
#X connect 12 0 23 0;
#X connect 13 0 14 0;
#X connect 14 0 1 0;
#X connect 15 0 24 0;
#X connect 16 0 17 0;
#X connect 17 0 1 0;
#X connect 18 0 25 0;
#X connect 19 0 20 0;
#X connect 20 0 1 0;
#X connect 21 0 26 0;
#X connect 22 0 7 0;
#X connect 23 0 10 0;
#X connect 24 0 13 0;
#X connect 25 0 16 0;
#X connect 26 0 19 0;
#X connect 29 0 1 0;
